<?xml version="1.0" standalone="no"?>
<!DOCTYPE svg PUBLIC "-//W3C//DTD SVG 20010904//EN"
 "http://www.w3.org/TR/2001/REC-SVG-20010904/DTD/svg10.dtd">
<svg version="1.0" xmlns="http://www.w3.org/2000/svg"
 width="2048.000000pt" height="2048.000000pt" viewBox="0 0 2048.000000 2048.000000"
 preserveAspectRatio="xMidYMid meet">

<g transform="translate(0.000000,2048.000000) scale(0.100000,-0.100000)"
fill="#000000" stroke="none">
<path d="M1680 20469 c-647 -73 -1205 -468 -1491 -1054 -95 -196 -154 -401
-178 -627 -8 -68 -11 -2657 -11 -8555 0 -9212 -4 -8571 54 -8808 113 -462 394
-860 797 -1130 184 -122 426 -222 657 -270 l117 -25 8615 0 c7536 0 8625 2
8699 15 287 50 569 172 801 347 358 270 604 654 717 1118 17 72 18 413 21
8720 l2 8645 -21 110 c-158 813 -836 1432 -1658 1515 -127 12 -17007 12
-17121 -1z"/>
</g>
</svg>
